<mxfile host="Electron" modified="2023-08-30T01:02:09.144Z" agent="Mozilla/5.0 (Windows NT 10.0; Win64; x64) AppleWebKit/537.36 (KHTML, like Gecko) draw.io/21.6.5 Chrome/114.0.5735.243 Electron/25.3.1 Safari/537.36" etag="9HO9DPG_57oVu3LD6drY" version="21.6.5" type="device">
  <diagram name="PÃ¡gina-1" id="aeDS-o4iHovAjv2XTkkA">
    <mxGraphModel dx="1104" dy="556" grid="1" gridSize="10" guides="1" tooltips="1" connect="1" arrows="1" fold="1" page="1" pageScale="1" pageWidth="827" pageHeight="1169" math="0" shadow="0">
      <root>
        <mxCell id="0" />
        <mxCell id="1" parent="0" />
        <mxCell id="YLA7A88n2jKZdbrA10O5-20" value="&lt;br&gt;&lt;br&gt;&lt;br&gt;&lt;br&gt;&lt;br&gt;&lt;br&gt;&lt;br&gt;&lt;br&gt;&lt;br&gt;&lt;br&gt;&lt;br&gt;&lt;br&gt;&lt;br&gt;&lt;br&gt;&lt;br&gt;&lt;br&gt;&lt;br&gt;&lt;br&gt;&lt;br&gt;&lt;br&gt;&lt;br&gt;&lt;br&gt;&lt;br&gt;&lt;br&gt;&lt;br&gt;&lt;br&gt;&lt;br&gt;&lt;br&gt;&lt;br&gt;&lt;br&gt;&lt;br&gt;&lt;br&gt;&lt;br&gt;IP DE HOST PRINCIPAL MI MAQUINA :&amp;nbsp;&lt;b&gt;172.17.0.1&lt;/b&gt;" style="whiteSpace=wrap;html=1;aspect=fixed;" parent="1" vertex="1">
          <mxGeometry x="250" width="500" height="500" as="geometry" />
        </mxCell>
        <mxCell id="YLA7A88n2jKZdbrA10O5-9" style="edgeStyle=orthogonalEdgeStyle;rounded=0;orthogonalLoop=1;jettySize=auto;html=1;" parent="1" source="YLA7A88n2jKZdbrA10O5-1" target="YLA7A88n2jKZdbrA10O5-2" edge="1">
          <mxGeometry relative="1" as="geometry" />
        </mxCell>
        <mxCell id="YLA7A88n2jKZdbrA10O5-1" value="Actor" style="shape=umlActor;verticalLabelPosition=bottom;verticalAlign=top;html=1;outlineConnect=0;" parent="1" vertex="1">
          <mxGeometry x="70" y="110" width="30" height="60" as="geometry" />
        </mxCell>
        <mxCell id="YLA7A88n2jKZdbrA10O5-10" style="edgeStyle=orthogonalEdgeStyle;rounded=0;orthogonalLoop=1;jettySize=auto;html=1;" parent="1" source="YLA7A88n2jKZdbrA10O5-2" target="YLA7A88n2jKZdbrA10O5-3" edge="1">
          <mxGeometry relative="1" as="geometry" />
        </mxCell>
        <mxCell id="YLA7A88n2jKZdbrA10O5-13" style="edgeStyle=orthogonalEdgeStyle;rounded=0;orthogonalLoop=1;jettySize=auto;html=1;entryX=0;entryY=0.5;entryDx=0;entryDy=0;" parent="1" source="YLA7A88n2jKZdbrA10O5-2" target="YLA7A88n2jKZdbrA10O5-6" edge="1">
          <mxGeometry relative="1" as="geometry" />
        </mxCell>
        <mxCell id="YLA7A88n2jKZdbrA10O5-3" value="APPS y APIS" style="shape=cylinder3;whiteSpace=wrap;html=1;boundedLbl=1;backgroundOutline=1;size=15;" parent="1" vertex="1">
          <mxGeometry x="290" y="330" width="60" height="80" as="geometry" />
        </mxCell>
        <mxCell id="YLA7A88n2jKZdbrA10O5-4" value="" style="endArrow=none;dashed=1;html=1;rounded=0;" parent="1" edge="1">
          <mxGeometry width="50" height="50" relative="1" as="geometry">
            <mxPoint x="440" y="450" as="sourcePoint" />
            <mxPoint x="440" y="20" as="targetPoint" />
          </mxGeometry>
        </mxCell>
        <mxCell id="YLA7A88n2jKZdbrA10O5-5" value="MS-Seguridad&lt;br&gt;9000&lt;br&gt;&lt;br&gt;localhost&lt;br&gt;&lt;br&gt;ip ???" style="rounded=0;whiteSpace=wrap;html=1;" parent="1" vertex="1">
          <mxGeometry x="540" y="70" width="120" height="100" as="geometry" />
        </mxCell>
        <mxCell id="oFqwVby0Qidl4kUpbbMU-4" style="edgeStyle=orthogonalEdgeStyle;rounded=0;orthogonalLoop=1;jettySize=auto;html=1;" parent="1" source="YLA7A88n2jKZdbrA10O5-6" target="oFqwVby0Qidl4kUpbbMU-1" edge="1">
          <mxGeometry relative="1" as="geometry">
            <Array as="points">
              <mxPoint x="690" y="300" />
              <mxPoint x="690" y="430" />
            </Array>
          </mxGeometry>
        </mxCell>
        <mxCell id="YLA7A88n2jKZdbrA10O5-6" value="MS-Catalogos&lt;br&gt;9001&lt;br&gt;&lt;br&gt;localhost&lt;br&gt;&lt;br&gt;IP &lt;b&gt;172.17.0.4&lt;/b&gt;" style="rounded=0;whiteSpace=wrap;html=1;" parent="1" vertex="1">
          <mxGeometry x="540" y="210" width="120" height="100" as="geometry" />
        </mxCell>
        <mxCell id="YLA7A88n2jKZdbrA10O5-7" value="MS-N&lt;br&gt;900X" style="rounded=0;whiteSpace=wrap;html=1;" parent="1" vertex="1">
          <mxGeometry x="540" y="326" width="120" height="60" as="geometry" />
        </mxCell>
        <mxCell id="YLA7A88n2jKZdbrA10O5-8" value="" style="rounded=0;whiteSpace=wrap;html=1;" parent="1" vertex="1">
          <mxGeometry x="500" y="398" width="160" height="62" as="geometry" />
        </mxCell>
        <mxCell id="YLA7A88n2jKZdbrA10O5-14" value="ID-APP&lt;br&gt;Access Token&lt;br&gt;&lt;br&gt;https://localhost:9443/oauth2/token" style="verticalLabelPosition=bottom;verticalAlign=top;html=1;shape=mxgraph.basic.banner" parent="1" vertex="1">
          <mxGeometry x="140" y="115" width="100" height="50" as="geometry" />
        </mxCell>
        <mxCell id="YLA7A88n2jKZdbrA10O5-18" style="edgeStyle=orthogonalEdgeStyle;rounded=0;orthogonalLoop=1;jettySize=auto;html=1;" parent="1" source="YLA7A88n2jKZdbrA10O5-17" target="YLA7A88n2jKZdbrA10O5-6" edge="1">
          <mxGeometry relative="1" as="geometry">
            <mxPoint x="700" y="240" as="targetPoint" />
            <Array as="points">
              <mxPoint x="780" y="520" />
              <mxPoint x="780" y="280" />
            </Array>
          </mxGeometry>
        </mxCell>
        <mxCell id="YLA7A88n2jKZdbrA10O5-19" value="&lt;a href=&quot;http://localhost:9001/api/catalogos/consultarCatalogoADTO/1&quot;&gt;localhost:9001/api/catalogos/consultarCatalogoADTO/1&lt;/a&gt;" style="edgeLabel;html=1;align=center;verticalAlign=middle;resizable=0;points=[];" parent="YLA7A88n2jKZdbrA10O5-18" vertex="1" connectable="0">
          <mxGeometry x="-0.6774" y="-2" relative="1" as="geometry">
            <mxPoint as="offset" />
          </mxGeometry>
        </mxCell>
        <mxCell id="YLA7A88n2jKZdbrA10O5-17" value="PostMan / curl" style="shape=umlActor;verticalLabelPosition=bottom;verticalAlign=top;html=1;outlineConnect=0;" parent="1" vertex="1">
          <mxGeometry x="1190" y="480" width="30" height="60" as="geometry" />
        </mxCell>
        <mxCell id="YLA7A88n2jKZdbrA10O5-2" value="&lt;b&gt;API MANAGER&lt;br&gt;1) Crear APP&lt;/b&gt;&lt;br&gt;2 Crear el API&lt;br&gt;localhost&lt;br&gt;8284&lt;br&gt;&lt;br&gt;ip&amp;nbsp;172.17.0.2" style="whiteSpace=wrap;html=1;aspect=fixed;" parent="1" vertex="1">
          <mxGeometry x="280" y="90" width="120" height="120" as="geometry" />
        </mxCell>
        <mxCell id="YLA7A88n2jKZdbrA10O5-26" value="" style="edgeStyle=orthogonalEdgeStyle;rounded=0;orthogonalLoop=1;jettySize=auto;html=1;" parent="1" source="YLA7A88n2jKZdbrA10O5-22" target="YLA7A88n2jKZdbrA10O5-25" edge="1">
          <mxGeometry relative="1" as="geometry" />
        </mxCell>
        <mxCell id="YLA7A88n2jKZdbrA10O5-27" value="" style="edgeStyle=orthogonalEdgeStyle;rounded=0;orthogonalLoop=1;jettySize=auto;html=1;" parent="1" source="YLA7A88n2jKZdbrA10O5-20" target="YLA7A88n2jKZdbrA10O5-22" edge="1">
          <mxGeometry relative="1" as="geometry">
            <mxPoint x="800" y="220" as="sourcePoint" />
          </mxGeometry>
        </mxCell>
        <mxCell id="YLA7A88n2jKZdbrA10O5-22" value="VPN&amp;nbsp;" style="ellipse;shape=cloud;whiteSpace=wrap;html=1;" parent="1" vertex="1">
          <mxGeometry x="810" y="230" width="120" height="80" as="geometry" />
        </mxCell>
        <mxCell id="YLA7A88n2jKZdbrA10O5-23" value="Servidor en instalaciones MejorEdu&lt;br&gt;&lt;br&gt;&lt;br&gt;&lt;br&gt;&lt;br&gt;&lt;br&gt;&lt;br&gt;&lt;br&gt;" style="rounded=0;whiteSpace=wrap;html=1;" parent="1" vertex="1">
          <mxGeometry x="990" y="80" width="240" height="270" as="geometry" />
        </mxCell>
        <mxCell id="YLA7A88n2jKZdbrA10O5-25" value="LDAP&amp;nbsp;" style="shape=cylinder3;whiteSpace=wrap;html=1;boundedLbl=1;backgroundOutline=1;size=15;" parent="1" vertex="1">
          <mxGeometry x="1080" y="190" width="60" height="80" as="geometry" />
        </mxCell>
        <mxCell id="oFqwVby0Qidl4kUpbbMU-1" value="MySql&lt;br&gt;172.17.0.3" style="shape=cylinder3;whiteSpace=wrap;html=1;boundedLbl=1;backgroundOutline=1;size=15;" parent="1" vertex="1">
          <mxGeometry x="530" y="404" width="120" height="50" as="geometry" />
        </mxCell>
      </root>
    </mxGraphModel>
  </diagram>
</mxfile>
